<?xml version="1.0" encoding="UTF-8"?>
<svg version="1.1" xmlns="http://www.w3.org/2000/svg" width="512" height="512">
<path d="M0 0 C0.99356506 0.00182281 1.98713013 0.00364563 3.01080322 0.00552368 C17.504692 0.05030022 31.61636097 0.51139787 45.875 3.3125 C46.77057617 3.47347168 47.66615234 3.63444336 48.58886719 3.80029297 C64.00871712 6.59001556 78.65180998 11.27044298 93.42089844 16.45214844 C97.78063435 17.98057157 99.3129336 18.40531482 103.609375 16.65234375 C104.56440918 16.27352051 105.51944336 15.89469727 106.50341797 15.50439453 C107.53354004 15.09044434 108.56366211 14.67649414 109.625 14.25 C121.52424597 9.63578673 133.43720211 6.13446209 145.875 3.3125 C146.61250488 3.13460938 147.35000977 2.95671875 148.10986328 2.7734375 C173.62171076 -3.25892052 204.23237701 -2.5030518 227.04980469 11.13232422 C242.92507156 21.39731085 251.77725173 37.67798202 255.98046875 55.78515625 C257.28940096 62.64269661 257.27120756 69.54064186 257.25 76.5 C257.24868576 77.55537964 257.24868576 77.55537964 257.24734497 78.63208008 C257.15465227 101.3222276 252.89835517 124.63328407 243.65625 145.484375 C239.11823604 155.47844572 239.11823604 155.47844572 240.54418945 166.02539062 C241.39605922 168.02759888 242.32850521 169.95647675 243.31640625 171.89453125 C244.9278084 175.42830789 245.30111702 177.4885148 244.875 181.3125 C243.5 183.6875 243.5 183.6875 241.875 185.3125 C241.215 185.3125 240.555 185.3125 239.875 185.3125 C240.0915625 185.98796875 240.308125 186.6634375 240.53125 187.359375 C240.94890625 188.69742188 240.94890625 188.69742188 241.375 190.0625 C241.79265625 191.38507813 241.79265625 191.38507813 242.21875 192.734375 C242.875 195.3125 242.875 195.3125 242.875 199.3125 C243.968125 199.374375 245.06125 199.43625 246.1875 199.5 C249.875 200.3125 249.875 200.3125 251.46875 202.1484375 C263.40121178 228.99647652 259.74250773 274.29818189 253.875 302.3125 C253.57698486 303.77478027 253.57698486 303.77478027 253.27294922 305.26660156 C243.42075995 352.36523222 222.43479251 395.46985483 189.3828125 430.59375 C187.60997467 432.51570503 185.93556591 434.42927239 184.28515625 436.44921875 C182.33630074 438.76447173 180.49189028 440.69051185 178.1875 442.625 C175.17818744 445.18207821 172.26508138 447.80906708 169.375 450.5 C136.11747051 480.36597016 94.00517529 499.70708716 50.4375 508.625 C49.71860596 508.77235596 48.99971191 508.91971191 48.2590332 509.0715332 C32.73237908 512.02265207 17.33186592 512.71957988 1.5625 512.6875 C0.04822418 512.68668427 0.04822418 512.68668427 -1.49664307 512.68585205 C-18.00852425 512.64508036 -33.91948772 511.72993591 -50.125 508.3125 C-51.66389893 507.99104004 -51.66389893 507.99104004 -53.23388672 507.66308594 C-62.38585419 505.68622643 -71.37339167 503.58144394 -79.9921875 499.8671875 C-92.27003502 494.53755676 -92.27003502 494.53755676 -105.13354492 496.32080078 C-108.65439729 497.82349545 -112.10197318 499.45124727 -115.54101562 501.13183594 C-134.70049258 509.88610942 -157.29754688 512.65494921 -178.125 512.75 C-179.38812012 512.76015137 -180.65124023 512.77030273 -181.95263672 512.78076172 C-202.86275524 512.58666858 -220.97977596 506.75874986 -236.40234375 492.15625 C-254.67190943 472.79962763 -255.9795259 448.54955322 -255.29980469 423.34033203 C-254.61938556 404.72522625 -249.66838143 384.15301775 -241.87109375 367.24609375 C-238.51064206 359.85790926 -236.05795441 354.36679836 -238.84790039 346.40258789 C-240.17414251 343.18516681 -241.61223014 340.02424033 -243.05859375 336.859375 C-244.93085741 332.38788816 -246.11994639 327.7531845 -247.3125 323.0625 C-247.55661621 322.10802979 -247.80073242 321.15355957 -248.05224609 320.17016602 C-252.25697624 303.16762653 -255.23833875 285.84053463 -255.328125 268.30078125 C-255.33518463 267.37813477 -255.34224426 266.45548828 -255.34951782 265.50488281 C-255.57602263 227.22034043 -255.57602263 227.22034043 -252.125 210.3125 C-251.92632324 209.29849121 -251.72764648 208.28448242 -251.52294922 207.23974609 C-244.81995862 173.72479309 -232.1292017 140.25359145 -212.125 112.3125 C-211.46757812 111.38179688 -210.81015625 110.45109375 -210.1328125 109.4921875 C-203.22754423 99.84630692 -195.82781095 90.83504718 -187.73828125 82.171875 C-185.93090247 80.19429463 -184.21108028 78.2258346 -182.51953125 76.15625 C-180.59327842 73.86862837 -178.77918745 71.97018994 -176.5 70.0625 C-173.26425696 67.31482993 -170.15689284 64.46837856 -167.0625 61.5625 C-160.48132081 55.57878687 -153.42818939 50.37870856 -146.125 45.3125 C-145.47821289 44.86261719 -144.83142578 44.41273437 -144.16503906 43.94921875 C-115.9574107 24.53811901 -84.34603976 11.69629781 -50.9375 4.5625 C-50.01267822 4.36366211 -49.08785645 4.16482422 -48.13500977 3.95996094 C-32.09658706 0.70226546 -16.32328667 -0.06217519 0 0 Z M153.875 49.3125 C157.57250249 53.11386492 161.44793221 56.58266093 165.5 60 C182.87010864 74.79650502 182.87010864 74.79650502 189.1328125 82.2578125 C191.146727 84.63296727 193.26022018 86.90182888 195.375 89.1875 C199.6730883 93.93530251 203.34428911 98.97669898 206.875 104.3125 C212.430499 98.757001 211.95077642 84.29300393 211.984375 76.71484375 C211.76224672 68.40394797 210.84647831 60.03997038 205.3359375 53.48046875 C192.2249715 41.17771298 169.68411299 44.42754592 153.875 49.3125 Z M-206.125 409.3125 C-206.434375 410.323125 -206.74375 411.33375 -207.0625 412.375 C-207.23652344 412.94347656 -207.41054687 413.51195312 -207.58984375 414.09765625 C-209.27203135 421.05970273 -209.37126267 427.993448 -209.4375 435.125 C-209.46650391 436.15431641 -209.49550781 437.18363281 -209.52539062 438.24414062 C-209.58817703 445.87993301 -208.63301362 453.23864415 -203.47973633 459.22314453 C-195.61604697 466.70519432 -185.53898928 467.49018854 -175.125 467.3125 C-166.93366947 466.83561361 -158.97558684 465.73514203 -151.125 463.3125 C-153.76729389 460.58053551 -156.47469551 458.17316991 -159.5 455.875 C-160.67175781 454.96427734 -160.67175781 454.96427734 -161.8671875 454.03515625 C-163.22831982 452.99664526 -164.60468266 451.97712021 -166.0078125 450.99609375 C-169.12583866 448.71406011 -170.07922984 447.48947794 -171.0625 443.6875 C-171.125 440.3125 -171.125 440.3125 -170.125 437.3125 C-174.87733217 431.16951466 -174.87733217 431.16951466 -181.515625 427.890625 C-183.7881167 428.01231363 -183.7881167 428.01231363 -185.88671875 428.484375 C-190.15757583 428.15642088 -192.94821028 424.67262806 -195.6184082 421.58642578 C-197.09281581 419.74827358 -198.52274865 417.88439446 -199.9375 416 C-201.64376899 413.74970322 -203.36817711 411.52424126 -205.125 409.3125 C-205.455 409.3125 -205.785 409.3125 -206.125 409.3125 Z " fill="#55D9FD" transform="translate(255.125,-0.3125)"/>
<path d="M0 0 C0.99356506 0.00182281 1.98713013 0.00364563 3.01080322 0.00552368 C17.504692 0.05030022 31.61636097 0.51139787 45.875 3.3125 C46.77057617 3.47347168 47.66615234 3.63444336 48.58886719 3.80029297 C64.00871712 6.59001556 78.65180998 11.27044298 93.42089844 16.45214844 C97.78063435 17.98057157 99.3129336 18.40531482 103.609375 16.65234375 C104.56440918 16.27352051 105.51944336 15.89469727 106.50341797 15.50439453 C107.53354004 15.09044434 108.56366211 14.67649414 109.625 14.25 C121.52424597 9.63578673 133.43720211 6.13446209 145.875 3.3125 C146.61250488 3.13460938 147.35000977 2.95671875 148.10986328 2.7734375 C173.62171076 -3.25892052 204.23237701 -2.5030518 227.04980469 11.13232422 C242.92507156 21.39731085 251.77725173 37.67798202 255.98046875 55.78515625 C257.28940096 62.64269661 257.27120756 69.54064186 257.25 76.5 C257.24868576 77.55537964 257.24868576 77.55537964 257.24734497 78.63208008 C257.15465227 101.3222276 252.89835517 124.63328407 243.65625 145.484375 C239.11823604 155.47844572 239.11823604 155.47844572 240.54418945 166.02539062 C241.39605922 168.02759888 242.32850521 169.95647675 243.31640625 171.89453125 C244.9278084 175.42830789 245.30111702 177.4885148 244.875 181.3125 C243.5 183.6875 243.5 183.6875 241.875 185.3125 C241.215 185.3125 240.555 185.3125 239.875 185.3125 C240.0915625 185.98796875 240.308125 186.6634375 240.53125 187.359375 C240.94890625 188.69742188 240.94890625 188.69742188 241.375 190.0625 C241.79265625 191.38507813 241.79265625 191.38507813 242.21875 192.734375 C242.875 195.3125 242.875 195.3125 242.875 199.3125 C243.968125 199.374375 245.06125 199.43625 246.1875 199.5 C249.875 200.3125 249.875 200.3125 251.46875 202.1484375 C263.40121178 228.99647652 259.74250773 274.29818189 253.875 302.3125 C253.57698486 303.77478027 253.57698486 303.77478027 253.27294922 305.26660156 C243.42075995 352.36523222 222.43479251 395.46985483 189.3828125 430.59375 C187.60997467 432.51570503 185.93556591 434.42927239 184.28515625 436.44921875 C182.33630074 438.76447173 180.49189028 440.69051185 178.1875 442.625 C175.17818744 445.18207821 172.26508138 447.80906708 169.375 450.5 C136.11747051 480.36597016 94.00517529 499.70708716 50.4375 508.625 C49.71860596 508.77235596 48.99971191 508.91971191 48.2590332 509.0715332 C32.73237908 512.02265207 17.33186592 512.71957988 1.5625 512.6875 C0.04822418 512.68668427 0.04822418 512.68668427 -1.49664307 512.68585205 C-18.00852425 512.64508036 -33.91948772 511.72993591 -50.125 508.3125 C-51.66389893 507.99104004 -51.66389893 507.99104004 -53.23388672 507.66308594 C-62.38585419 505.68622643 -71.37339167 503.58144394 -79.9921875 499.8671875 C-92.27003502 494.53755676 -92.27003502 494.53755676 -105.13354492 496.32080078 C-108.65439729 497.82349545 -112.10197318 499.45124727 -115.54101562 501.13183594 C-134.70049258 509.88610942 -157.29754688 512.65494921 -178.125 512.75 C-179.38812012 512.76015137 -180.65124023 512.77030273 -181.95263672 512.78076172 C-202.86275524 512.58666858 -220.97977596 506.75874986 -236.40234375 492.15625 C-254.67190943 472.79962763 -255.9795259 448.54955322 -255.29980469 423.34033203 C-254.61938556 404.72522625 -249.66838143 384.15301775 -241.87109375 367.24609375 C-238.51064206 359.85790926 -236.05795441 354.36679836 -238.84790039 346.40258789 C-240.17414251 343.18516681 -241.61223014 340.02424033 -243.05859375 336.859375 C-244.93085741 332.38788816 -246.11994639 327.7531845 -247.3125 323.0625 C-247.55661621 322.10802979 -247.80073242 321.15355957 -248.05224609 320.17016602 C-252.25697624 303.16762653 -255.23833875 285.84053463 -255.328125 268.30078125 C-255.33518463 267.37813477 -255.34224426 266.45548828 -255.34951782 265.50488281 C-255.57602263 227.22034043 -255.57602263 227.22034043 -252.125 210.3125 C-251.92632324 209.29849121 -251.72764648 208.28448242 -251.52294922 207.23974609 C-244.81995862 173.72479309 -232.1292017 140.25359145 -212.125 112.3125 C-211.46757812 111.38179688 -210.81015625 110.45109375 -210.1328125 109.4921875 C-203.22754423 99.84630692 -195.82781095 90.83504718 -187.73828125 82.171875 C-185.93090247 80.19429463 -184.21108028 78.2258346 -182.51953125 76.15625 C-180.59327842 73.86862837 -178.77918745 71.97018994 -176.5 70.0625 C-173.26425696 67.31482993 -170.15689284 64.46837856 -167.0625 61.5625 C-160.48132081 55.57878687 -153.42818939 50.37870856 -146.125 45.3125 C-145.47821289 44.86261719 -144.83142578 44.41273437 -144.16503906 43.94921875 C-115.9574107 24.53811901 -84.34603976 11.69629781 -50.9375 4.5625 C-50.01267822 4.36366211 -49.08785645 4.16482422 -48.13500977 3.95996094 C-32.09658706 0.70226546 -16.32328667 -0.06217519 0 0 Z M-149.125 67.3125 C-149.66898437 67.73934082 -150.21296875 68.16618164 -150.7734375 68.60595703 C-165.71738444 80.42264144 -179.72176091 94.23781705 -190.92626953 109.66503906 C-192.1385225 111.33108448 -193.37760363 112.97436715 -194.62109375 114.6171875 C-215.79383464 142.96845652 -231.62394432 178.2207984 -237.125 213.3125 C-237.27018066 214.23289063 -237.41536133 215.15328125 -237.56494141 216.1015625 C-244.07420995 259.39414123 -240.30912759 305.7592801 -223.125 346.3125 C-222.7935498 347.11026855 -222.46209961 347.90803711 -222.12060547 348.72998047 C-219.92200918 353.98964145 -217.58993872 359.17247232 -215.125 364.3125 C-214.8269043 364.93608398 -214.52880859 365.55966797 -214.22167969 366.20214844 C-206.1174548 382.86629334 -195.41684861 399.70107077 -182.46875 413.015625 C-179.81952241 415.8120319 -178.8254764 417.71245682 -178.75 421.5 C-179.125 425.3125 -179.125 425.3125 -180.125 428.3125 C-187.2584731 428.92745458 -187.2584731 428.92745458 -191.03125 426.25 C-194.46642067 423.18424347 -197.22659506 419.65893505 -200 416 C-200.49757812 415.35482422 -200.99515625 414.70964844 -201.5078125 414.04492188 C-202.71951851 412.47203426 -203.92311973 410.8929084 -205.125 409.3125 C-210.85321907 415.04071907 -209.39689642 427.86923385 -209.5 435.4375 C-209.52594238 436.45021973 -209.55188477 437.46293945 -209.57861328 438.50634766 C-209.59696134 446.02538322 -208.54400975 453.33887796 -203.47998047 459.22436523 C-195.61216836 466.70321493 -185.54122665 467.49022672 -175.125 467.3125 C-166.93366947 466.83561361 -158.97558684 465.73514203 -151.125 463.3125 C-153.76729389 460.58053551 -156.47469551 458.17316991 -159.5 455.875 C-160.28117187 455.26785156 -161.06234375 454.66070312 -161.8671875 454.03515625 C-163.22831982 452.99664526 -164.60468266 451.97712021 -166.0078125 450.99609375 C-169.05507083 448.76585396 -170.09816093 447.3974904 -171.25 443.75 C-171.125 440.3125 -171.125 440.3125 -169.625 437.875 C-166.18977235 435.72798272 -164.13367338 435.87924359 -160.125 436.3125 C-157.81261882 437.87789576 -156.04815096 439.28738574 -154.0625 441.1875 C-152.9357463 442.19398502 -151.80541541 443.19647712 -150.671875 444.1953125 C-149.80272461 444.9672998 -149.80272461 444.9672998 -148.91601562 445.75488281 C-145.97176736 448.31544769 -142.93066909 450.71826039 -139.8125 453.0625 C-139.26263428 453.5044873 -138.71276855 453.94647461 -138.14624023 454.40185547 C-135.07234943 456.67272387 -133.22646181 457.31165183 -129.38671875 457.34375 C-124.0952261 456.31009245 -119.18549515 454.17724716 -114.25 452.0625 C-113.2077124 451.61994873 -112.1654248 451.17739746 -111.09155273 450.72143555 C-74.79170617 435.0623068 -41.59979969 414.1021049 -10.125 390.3125 C-9.18140625 389.6006958 -9.18140625 389.6006958 -8.21875 388.87451172 C7.3942059 377.06635785 22.39599089 364.48173032 36.875 351.3125 C38.43730768 349.91645141 39.99981272 348.52062367 41.5625 347.125 C52.07727803 337.6372468 62.34441038 327.93766036 72.375 317.9375 C73.62966064 316.68972778 73.62966064 316.68972778 74.90966797 315.41674805 C79.18602664 311.12966631 83.305366 306.77105002 87.25292969 302.1796875 C89.83475304 299.20771504 92.54910699 296.36331856 95.25 293.5 C99.9001341 288.53065447 104.32466938 283.45353828 108.578125 278.13671875 C110.72232971 275.50022215 112.92669876 272.93542355 115.16137695 270.3762207 C121.57799231 263.01317768 127.49501701 255.36320745 133.27148438 247.49121094 C134.96750898 245.18680723 136.67792029 242.89359192 138.390625 240.6015625 C145.5259365 231.02947298 152.44588417 221.37391155 158.875 211.3125 C159.36822754 210.54244629 159.86145508 209.77239258 160.36962891 208.97900391 C175.30605349 185.54292214 188.80357143 161.05807412 199.0625 135.1875 C199.35423096 134.45950195 199.64596191 133.73150391 199.9465332 132.98144531 C202.00762434 127.75980745 202.00762434 127.75980745 201.875 122.3125 C200.33523112 119.62662864 198.47949729 117.23844493 196.5625 114.8125 C196.01271484 114.10254883 195.46292969 113.39259766 194.89648438 112.66113281 C193.23714597 110.53301698 191.55871535 108.42135475 189.875 106.3125 C189.43752441 105.75498047 189.00004883 105.19746094 188.54931641 104.62304688 C175.23833088 87.72936128 159.49402285 72.62156168 141.875 60.3125 C141.23755859 59.86229492 140.60011719 59.41208984 139.94335938 58.94824219 C113.45221853 40.3553354 83.99554466 27.29317856 52.375 20.375 C51.08907959 20.09261475 49.80315918 19.81022949 48.47827148 19.51928711 C32.87318526 16.26669073 17.54349236 14.8971665 1.625 14.9375 C0.80683807 14.93804382 -0.01132385 14.93858765 -0.85427856 14.93914795 C-55.00554729 15.10303015 -106.74993782 33.69327637 -149.125 67.3125 Z M153.875 49.3125 C157.57250249 53.11386492 161.44793221 56.58266093 165.5 60 C182.87010864 74.79650502 182.87010864 74.79650502 189.1328125 82.2578125 C191.146727 84.63296727 193.26022018 86.90182888 195.375 89.1875 C199.6730883 93.93530251 203.34428911 98.97669898 206.875 104.3125 C212.430499 98.757001 211.95077642 84.29300393 211.984375 76.71484375 C211.76224672 68.40394797 210.84647831 60.03997038 205.3359375 53.48046875 C192.2249715 41.17771298 169.68411299 44.42754592 153.875 49.3125 Z " fill="#010202" transform="translate(255.125,-0.3125)"/>
<path d="M0 0 C1.19349564 -0.00551376 1.19349564 -0.00551376 2.41110229 -0.01113892 C38.84166461 -0.09908205 73.65190211 9.20986869 106.5 24.625 C107.57950928 25.12862061 108.65901855 25.63224121 109.77124023 26.15112305 C110.76325439 26.63363525 111.75526855 27.11614746 112.77734375 27.61328125 C113.65511475 28.03778564 114.53288574 28.46229004 115.43725586 28.8996582 C117.5625 30.3125 117.5625 30.3125 119.5625 34.3125 C56.5325 97.3425 -6.4975 160.3725 -71.4375 225.3125 C-75.08237557 221.66762443 -74.55332206 215.89254362 -75.0625 210.9375 C-75.19366211 209.66487305 -75.32482422 208.39224609 -75.45996094 207.08105469 C-76.46621297 196.57685881 -76.71058515 186.11018968 -76.6875 175.5625 C-76.68663391 174.82525696 -76.68576782 174.08801392 -76.68487549 173.32843018 C-76.65230822 162.61140825 -76.06838836 152.03760205 -75.4375 141.3125 C-127.5775 193.4525 -179.7175 245.5925 -233.4375 299.3125 C-236.69720212 294.42294682 -237.00275564 288.72601733 -238 283 C-238.22107422 281.79537109 -238.44214844 280.59074219 -238.66992188 279.34960938 C-249.36164705 218.97850863 -234.43414327 154.47395128 -199.4375 104.3125 C-196.26196941 99.84584543 -192.9032204 95.55938277 -189.4375 91.3125 C-188.64601562 90.31734375 -187.85453125 89.3221875 -187.0390625 88.296875 C-175.4040957 73.91033422 -162.06357495 60.38991485 -147.07617188 49.50683594 C-145.43429738 48.31016579 -143.81833212 47.08391293 -142.203125 45.8515625 C-101.26023814 15.08677403 -50.80296461 0.11217245 0 0 Z " fill="#7BE2FE" transform="translate(256.4375,14.6875)"/>
<path d="M0 0 C0.06915446 4.35673129 0.07256754 8.4397786 -0.48828125 12.76953125 C-1.33158224 20.06434812 -1.24436556 27.4160662 -1.25 34.75 C-1.25067474 35.54112183 -1.25134949 36.33224365 -1.25204468 37.14733887 C-1.22010878 60.91123114 1.57048001 83.85530735 7 107 C7.403902 108.7551494 7.80755675 110.51035573 8.2109375 112.265625 C9.11805578 116.18274449 10.04981983 120.09311393 11 124 C12.60488281 123.65775391 12.60488281 123.65775391 14.2421875 123.30859375 C18 123 18 123 20.2578125 124.22265625 C20.87398437 124.82980469 21.49015625 125.43695313 22.125 126.0625 C22.78757813 126.71347656 23.45015625 127.36445313 24.1328125 128.03515625 C24.74898437 128.68355469 25.36515625 129.33195313 26 130 C26.53367188 130.51433594 27.06734375 131.02867187 27.6171875 131.55859375 C30.15599281 134.20497555 30.99923442 135.99555961 31.625 139.625 C31 143 31 143 28.8125 145.4375 C25.79382705 147.11454053 24.37992608 147.44472712 21 147 C20.01 146.67 19.02 146.34 18 146 C10.37990326 149.36278182 6.44821034 156.82372456 3 164 C1.07164304 169.94203018 1.01358171 176.6020542 3.625 182.3125 C6.26898207 186.93713295 9.65190374 189.63027718 14.25 192.3125 C20.0790474 193.76976185 25.73100082 193.74198262 31.3125 191.4375 C36.31305921 189.48812946 36.31305921 189.48812946 40 191 C41.89969917 193.27082103 43.27305038 195.78224397 44.6875 198.375 C45.4620084 199.73711064 46.23673996 201.09909443 47.01171875 202.4609375 C47.34647217 203.06728027 47.68122559 203.67362305 48.02612305 204.29833984 C48.94723752 205.90780785 49.971358 207.45703701 51 209 C50.67844502 212.32225808 49.39753138 213.97268289 47.07041931 216.27688599 C46.13438622 217.21476959 46.13438622 217.21476959 45.17944336 218.17160034 C44.49108398 218.8460318 43.80272461 219.52046326 43.09350586 220.21533203 C42.37159561 220.93446777 41.64968536 221.65360352 40.90589905 222.39453125 C38.51561786 224.77251574 36.11512556 227.13992661 33.71484375 229.5078125 C32.05638063 231.15560377 30.39872165 232.80420477 28.74183655 234.45358276 C24.37669626 238.79591615 20.00350973 243.130044 15.62774658 247.46166992 C8.61802039 254.40126227 1.61575898 261.348315 -5.37747002 268.3045311 C-7.82835119 270.73863955 -10.28552873 273.16626551 -12.74317932 275.59353638 C-14.23667956 277.0765816 -15.72993358 278.55987482 -17.22290039 280.04345703 C-18.2584758 281.06117691 -18.2584758 281.06117691 -19.31497192 282.09945679 C-19.93617416 282.71907288 -20.5573764 283.33868896 -21.19740295 283.9770813 C-21.74180558 284.51574389 -22.28620821 285.05440647 -22.84710789 285.60939217 C-24.21274638 286.95555208 -24.21274638 286.95555208 -24 289 C-54.30010658 302.9099975 -54.30010658 302.9099975 -60 302 C-62.73378491 300.43123104 -65.15691939 298.51584722 -67.625 296.5625 C-68.33068115 296.02206055 -69.0363623 295.48162109 -69.76342773 294.92480469 C-72.99810682 292.4306475 -76.17058076 289.88749537 -79.24609375 287.19921875 C-80.64021484 285.98685547 -80.64021484 285.98685547 -82.0625 284.75 C-82.85785156 284.02296875 -83.65320313 283.2959375 -84.47265625 282.546875 C-87.83109353 280.49132452 -90.12386721 280.66562305 -94 281 C-95.05960938 281.38478516 -95.05960938 281.38478516 -96.140625 281.77734375 C-97.06101562 281.88755859 -97.06101562 281.88755859 -98 282 C-100.359375 280.12890625 -100.359375 280.12890625 -102.75 277.5625 C-103.54921875 276.71816406 -104.3484375 275.87382812 -105.171875 275.00390625 C-105.77515625 274.34261719 -106.3784375 273.68132812 -107 273 C-106.67 272.01 -106.34 271.02 -106 270 C-105.42286753 264.06441673 -105.42286753 264.06441673 -108.0546875 258.8671875 C-108.97782171 257.85406484 -109.9190672 256.8572356 -110.875 255.875 C-111.89868946 254.74202455 -112.91811832 253.60518718 -113.93359375 252.46484375 C-114.45034668 251.88976074 -114.96709961 251.31467773 -115.49951172 250.72216797 C-136.58617178 226.5201992 -150.62108045 194.72270502 -159 164 C-159.30186407 163.25695271 -159.60372814 162.51390543 -159.91473961 161.74834156 C-160 159 -160 159 -157.64267921 155.90159893 C-156.47422068 154.70651132 -155.28866772 153.5280076 -154.09072876 152.36247253 C-153.44300393 151.70891558 -152.79527909 151.05535864 -152.12792623 150.38199693 C-149.94389261 148.18569422 -147.73901543 146.01157879 -145.53369141 143.83666992 C-143.96769694 142.27073081 -142.40301453 140.70347864 -140.83955383 139.13500977 C-136.58235001 134.87179723 -132.30676431 130.62745886 -128.02759981 126.38630462 C-123.56134258 121.95376323 -119.11161327 117.50469235 -114.66000366 113.05744934 C-107.1825537 105.59196965 -99.69434661 98.13741209 -92.19824219 90.69067383 C-84.478019 83.02124748 -76.76553568 75.34416091 -69.0625 67.6574707 C-68.58787038 67.18385202 -68.11324077 66.71023334 -67.62422843 66.22226258 C-65.71670654 64.31876022 -63.80921316 62.41522929 -61.90176371 60.51165433 C-53.24381215 51.87162945 -44.57934334 43.23814193 -35.9140625 34.60546875 C-34.59092191 33.28708531 -34.59092191 33.28708531 -33.2410512 31.94206786 C-28.18039788 26.90018631 -23.11699915 21.86109269 -18.04923058 16.82636261 C-16.510416 15.29690204 -14.97244484 13.76659238 -13.43535423 12.23539925 C-11.34698893 10.15543137 -9.25557088 8.07858531 -7.16323853 6.00260925 C-6.54680847 5.38735907 -5.93037841 4.77210889 -5.29526865 4.13821477 C-1.1142932 0 -1.1142932 0 0 0 Z " fill="#1CBAE9" transform="translate(182,155)"/>
<path d="M0 0 C0.66 0 1.32 0 2 0 C2.391875 0.804375 2.78375 1.60875 3.1875 2.4375 C4.8525473 5.40122736 4.8525473 5.40122736 8.6875 5.8125 C10.3271875 5.9053125 10.3271875 5.9053125 12 6 C12.508783 7.55966218 13.00663469 9.12289241 13.5 10.6875 C13.91765625 11.99267578 13.91765625 11.99267578 14.34375 13.32421875 C15.01137166 16.0463666 15.30487519 18.2132502 15 21 C13.7625 21.928125 13.7625 21.928125 12.5 22.875 C9.6939148 24.78612323 9.6939148 24.78612323 9.5625 28 C9.8762911 32.2227316 10.67181579 36.40271173 11.40185547 40.56982422 C13.44318727 52.27623721 14.36978052 63.52060075 14.3125 75.375 C14.30976578 76.554039 14.30976578 76.554039 14.30697632 77.75689697 C14.25419569 91.34266383 13.43959165 104.61010619 11 118 C10.83902832 118.89187012 10.67805664 119.78374023 10.51220703 120.70263672 C2.71631749 162.10847079 -15.47149971 201.10350889 -43 233 C-43.98613281 234.15242188 -43.98613281 234.15242188 -44.9921875 235.328125 C-55.67677055 247.50451776 -67.09107977 259.073754 -80.17529297 268.66259766 C-81.42509971 269.57863209 -82.66865198 270.50324409 -83.90673828 271.43505859 C-133.2894956 308.56688181 -198.36977981 324.81820423 -259.5012207 316.41723633 C-291.00251504 311.60698787 -291.00251504 311.60698787 -303 306 C-303.33 305.34 -303.66 304.68 -304 304 C-303.30253662 303.64921387 -302.60507324 303.29842773 -301.88647461 302.93701172 C-260.81034085 282.1889098 -222.20441399 256.68851502 -187 227 C-186.48002441 226.56349121 -185.96004883 226.12698242 -185.42431641 225.67724609 C-176.33119296 218.04302517 -167.37496501 210.27382334 -158.56640625 202.3125 C-156.89341984 200.80502975 -155.21400756 199.30465123 -153.52734375 197.8125 C-148.00819121 192.91436145 -142.76858773 187.79875901 -137.5859375 182.55078125 C-135.45229606 180.44614702 -133.29367924 178.48638198 -131 176.5625 C-127.07488874 173.21413978 -123.66078844 169.44866419 -120.21582031 165.62231445 C-117.15381209 162.22920672 -114.00545504 158.96092754 -110.75 155.75 C-107.28444504 152.32258794 -104.00331788 148.81989977 -100.8359375 145.1171875 C-98.6479383 142.59400545 -96.38706887 140.14445481 -94.125 137.6875 C-90.10619407 133.27646827 -86.27134676 128.76264642 -82.52734375 124.1171875 C-80.64952084 121.78762058 -78.73975883 119.48742603 -76.81640625 117.1953125 C-68.71335624 107.51319482 -61.08749389 97.56620243 -53.69384766 87.33349609 C-52.07480169 85.10304909 -50.43730722 82.88762133 -48.79296875 80.67578125 C-30.02241295 55.29155551 -14.40783757 28.03861357 0 0 Z " fill="#B8EFFE" transform="translate(483,179)"/>
<path d="M0 0 C7.65589276 6.30257839 13.27871656 14.85827803 16.5078125 24.22265625 C16.78496094 25.01542969 17.06210937 25.80820312 17.34765625 26.625 C28.33530919 64.34758727 10.47292842 108.41208854 -5.4921875 142.22265625 C-5.93755859 143.17237305 -6.38292969 144.12208984 -6.84179688 145.10058594 C-20.75246293 174.50133782 -38.24239924 202.04442782 -57.4921875 228.22265625 C-57.94770996 228.84414551 -58.40323242 229.46563477 -58.87255859 230.10595703 C-69.38633658 244.40995732 -80.59060279 258.12600577 -92.12402344 271.61621094 C-93.51735306 273.25220467 -94.89998719 274.89677993 -96.28125 276.54296875 C-101.62027636 282.87840604 -107.11049925 289.04452087 -112.79296875 295.07421875 C-113.48285889 295.80643646 -114.17274902 296.53865417 -114.88354492 297.2930603 C-122.05714185 304.87143288 -129.39704997 312.2792836 -136.78613281 319.64697266 C-139.02267745 321.87807197 -141.2537105 324.11458572 -143.484375 326.3515625 C-144.93457473 327.80110257 -146.38508401 329.25033304 -147.8359375 330.69921875 C-148.48816284 331.35346832 -149.14038818 332.0077179 -149.81237793 332.68179321 C-153.66240503 336.51250972 -157.62292525 340.16136811 -161.73783875 343.7064209 C-164.14218638 345.78443239 -166.47054306 347.94138596 -168.8046875 350.09765625 C-173.29717388 354.19465552 -177.91126032 358.08386051 -182.64453125 361.8984375 C-185.09105396 363.89525645 -187.48784259 365.93779368 -189.87426758 368.00561523 C-199.03333611 375.90820505 -208.7489719 383.06227309 -218.4921875 390.22265625 C-219.28915039 390.80901855 -220.08611328 391.39538086 -220.90722656 391.99951172 C-259.16205506 420.07271954 -300.41337098 444.85052441 -345.4921875 460.22265625 C-346.34296875 460.5175293 -347.19375 460.81240234 -348.0703125 461.11621094 C-375.57721635 470.51224059 -407.62934234 476.04111704 -434.9296875 463.47265625 C-447.46920703 456.65917748 -454.94809916 446.56679748 -459.66796875 433.21875 C-465.0295433 413.72904535 -463.24474129 393.64711936 -458.4921875 374.22265625 C-458.17942871 372.93343262 -458.17942871 372.93343262 -457.86035156 371.61816406 C-455.74559587 363.02717023 -453.3667636 354.59176868 -450.4921875 346.22265625 C-449.8321875 346.22265625 -449.1721875 346.22265625 -448.4921875 346.22265625 C-447.17419731 348.63646971 -445.86267832 351.05343221 -444.5546875 353.47265625 C-444.18150391 354.15457031 -443.80832031 354.83648437 -443.42382812 355.5390625 C-443.06611328 356.20292969 -442.70839844 356.86679687 -442.33984375 357.55078125 C-442.00992432 358.15825195 -441.68000488 358.76572266 -441.34008789 359.39160156 C-439.684 362.96795031 -439.25277124 365.34003903 -440.41796875 369.12890625 C-440.63686768 369.86584717 -440.8557666 370.60278809 -441.08129883 371.36206055 C-441.32001709 372.14105713 -441.55873535 372.92005371 -441.8046875 373.72265625 C-447.88449823 394.8315416 -450.4757027 418.56044981 -439.8671875 438.72265625 C-434.01944108 447.57529 -424.90863189 451.65146877 -414.85546875 453.78125 C-402.63354543 455.38528872 -389.50913635 454.83110312 -377.4921875 452.22265625 C-376.37199219 451.98933594 -375.25179687 451.75601562 -374.09765625 451.515625 C-307.81360266 436.31540747 -247.63949503 396.52126773 -196.5625 352.82421875 C-193.81484705 350.48007924 -191.00418522 348.22382309 -188.1796875 345.97265625 C-182.71318616 341.52912592 -177.60458403 336.73963172 -172.50073242 331.88964844 C-169.01227343 328.57474682 -165.48669044 325.32220576 -161.8828125 322.1328125 C-155.76040923 316.64400337 -149.9618853 310.84271507 -144.15942383 305.02026367 C-142.30076642 303.15622381 -140.43679136 301.29762113 -138.57226562 299.43945312 C-133.19415752 294.0643497 -127.86184127 288.7021206 -122.93139648 282.90698242 C-120.58286486 280.1584634 -118.08995007 277.54643821 -115.6171875 274.91015625 C-111.13351481 270.09029548 -106.8759452 265.14761647 -102.75390625 260.01171875 C-100.74614241 257.53582345 -98.69167083 255.10867229 -96.61230469 252.69287109 C-90.16048995 245.18108251 -84.12253783 237.38541821 -78.17919922 229.46728516 C-77.06500056 227.98480434 -75.9469035 226.50524453 -74.82470703 225.02880859 C-47.78560971 189.4477249 -25.12896362 150.70348718 -8.4921875 109.22265625 C-8.06534668 108.18238281 -8.06534668 108.18238281 -7.62988281 107.12109375 C1.55228411 84.61796942 9.75119603 51.69146188 0.76171875 27.94921875 C-4.32114417 16.89676292 -9.62713144 11.35772308 -21.0546875 6.91015625 C-40.47631073 -0.09581743 -64.43734291 4.65975907 -83.43359375 10.8046875 C-88.45176094 11.82355636 -92.57500932 8.61218488 -96.7421875 6.16015625 C-97.391875 5.78310547 -98.0415625 5.40605469 -98.7109375 5.01757812 C-100.30723841 4.0903151 -101.90006279 3.15707169 -103.4921875 2.22265625 C-103.4921875 1.56265625 -103.4921875 0.90265625 -103.4921875 0.22265625 C-91.6397811 -3.98032474 -79.85607798 -7.44234357 -67.4921875 -9.77734375 C-66.57566406 -9.95539551 -65.65914063 -10.13344727 -64.71484375 -10.31689453 C-42.65831638 -14.3392632 -18.80278292 -13.4095082 0 0 Z " fill="#EAE8FA" transform="translate(477.4921875,26.77734375)"/>
<path d="M0 0 C0.06921666 4.36064952 0.07136406 8.4473567 -0.48828125 12.78125 C-1.23792268 19.26989482 -1.22344596 25.77900388 -1.24023438 32.30200195 C-1.24963696 34.47846544 -1.28058096 36.65384825 -1.3125 38.83007812 C-1.31477065 39.51716323 -1.3170413 40.20424833 -1.31938076 40.9121542 C-1.32503688 42.46731869 -1.34294331 44.0225077 -1.37557316 45.57734013 C-1.37273012 50.96915582 -0.6579659 55.67642205 0.71620178 60.89524841 C2.95873473 70.54268623 5.15211856 81.06498194 -0.11542892 90.08003426 C-6.89567418 100.08532822 -16.17075732 108.30639827 -24.95624566 116.50503349 C-28.81105113 120.13885989 -32.56496543 123.87423339 -36.3313446 127.59924316 C-43.45628387 134.61600898 -50.66546493 141.53889922 -57.91059321 148.43125963 C-66.16352226 156.29099028 -74.31556618 164.25210248 -82.46130812 172.22263432 C-99.1988578 188.59574944 -116.05710668 204.83965407 -133 221 C-136.65721661 219.33374075 -137.80975167 218.10619013 -139.55078125 214.44140625 C-140.22258423 213.04027588 -140.22258423 213.04027588 -140.90795898 211.61083984 C-141.37145752 210.6048877 -141.83495605 209.59893555 -142.3125 208.5625 C-142.795979 207.5307666 -143.27945801 206.4990332 -143.77758789 205.43603516 C-149.94487547 192.06929518 -155.1240706 178.21174112 -159 164 C-159.30186407 163.25695271 -159.60372814 162.51390543 -159.91473961 161.74834156 C-160 159 -160 159 -157.64267921 155.90159893 C-156.47422068 154.70651132 -155.28866772 153.5280076 -154.09072876 152.36247253 C-153.44300393 151.70891558 -152.79527909 151.05535864 -152.12792623 150.38199693 C-149.94389261 148.18569422 -147.73901543 146.01157879 -145.53369141 143.83666992 C-143.96769694 142.27073081 -142.40301453 140.70347864 -140.83955383 139.13500977 C-136.58235001 134.87179723 -132.30676431 130.62745886 -128.02759981 126.38630462 C-123.56134258 121.95376323 -119.11161327 117.50469235 -114.66000366 113.05744934 C-107.1825537 105.59196965 -99.69434661 98.13741209 -92.19824219 90.69067383 C-84.478019 83.02124748 -76.76553568 75.34416091 -69.0625 67.6574707 C-68.58787038 67.18385202 -68.11324077 66.71023334 -67.62422843 66.22226258 C-65.71670654 64.31876022 -63.80921316 62.41522929 -61.90176371 60.51165433 C-53.24381215 51.87162945 -44.57934334 43.23814193 -35.9140625 34.60546875 C-34.59092191 33.28708531 -34.59092191 33.28708531 -33.2410512 31.94206786 C-28.18039788 26.90018631 -23.11699915 21.86109269 -18.04923058 16.82636261 C-16.510416 15.29690204 -14.97244484 13.76659238 -13.43535423 12.23539925 C-11.34698893 10.15543137 -9.25557088 8.07858531 -7.16323853 6.00260925 C-6.54680847 5.38735907 -5.93037841 4.77210889 -5.29526865 4.13821477 C-1.1142932 0 -1.1142932 0 0 0 Z " fill="#2DCFFB" transform="translate(182,155)"/>
<path d="M0 0 C-1.11669161 0.62939161 -1.11669161 0.62939161 -2.25594264 1.2714982 C-4.83356048 2.89515853 -6.75968947 4.5100696 -8.90491772 6.65602875 C-9.64863603 7.39514826 -10.39235434 8.13426778 -11.15860957 8.89578485 C-11.96367121 9.70599006 -12.76873286 10.51619527 -13.59819031 11.35095215 C-14.46268085 12.21302827 -15.32717139 13.0751044 -16.21785861 13.96330404 C-18.61208516 16.35287216 -21.00174893 18.74684251 -23.38958085 21.14279056 C-25.96740995 23.72720329 -28.55100444 26.30584126 -31.13388062 28.88520813 C-36.19069398 33.93698173 -41.2421529 38.99407704 -46.29181751 44.05299532 C-52.17061159 49.94217493 -58.05463077 55.82612237 -63.93886266 61.70986789 C-74.43544613 72.20595081 -84.92719151 82.70685659 -95.41625977 93.21044922 C-105.59883072 103.40711286 -115.78490239 113.60026238 -125.97485352 123.78955078 C-126.60266516 124.41732247 -127.2304768 125.04509416 -127.87731304 125.69188923 C-128.50403071 126.31856654 -129.13074838 126.94524385 -129.77645749 127.59091139 C-141.37253244 139.18629686 -152.96531633 150.78496767 -164.55656772 162.38517484 C-168.65863348 166.4902592 -172.76167741 170.59436435 -176.86502647 174.69816589 C-181.86286438 179.69668529 -186.85881036 184.697087 -191.85238918 189.69986141 C-194.4012401 192.25333525 -196.95087695 194.80601084 -199.50266838 197.3565464 C-202.26541908 200.1180033 -205.02429316 202.88331197 -207.78276062 205.64904785 C-208.59451443 206.45925306 -209.40626824 207.26945827 -210.24262065 208.10421515 C-210.97851572 208.84333466 -211.71441079 209.58245418 -212.47260571 210.34397125 C-213.11010382 210.98217379 -213.74760193 211.62037633 -214.40441817 212.27791834 C-216.19137968 214.11523971 -216.19137968 214.11523971 -218 217 C-215.16263312 170.47696712 -196.4179712 125.04868852 -167 89 C-166.20851562 88.00484375 -165.41703125 87.0096875 -164.6015625 85.984375 C-152.9665957 71.59783422 -139.62607495 58.07741485 -124.63867188 47.19433594 C-122.99679738 45.99766579 -121.38083212 44.77141293 -119.765625 43.5390625 C-94.17776224 24.31215289 -33.43445165 -11.7403418 0 0 Z " fill="#54D9FC" transform="translate(234,17)"/>
<path d="M0 0 C1 3 1 3 0.03466797 5.48583984 C-0.47435059 6.46762207 -0.98336914 7.4494043 -1.5078125 8.4609375 C-2.0759668 9.56211914 -2.64412109 10.66330078 -3.22949219 11.79785156 C-3.86040254 12.99072437 -4.49226094 14.18309619 -5.125 15.375 C-5.44134399 15.9779187 -5.75768799 16.5808374 -6.08361816 17.20202637 C-12.18042521 28.81371094 -18.85347029 40.00186191 -26 51 C-26.43763672 51.6791748 -26.87527344 52.35834961 -27.32617188 53.05810547 C-39.44526162 71.81811607 -52.95376388 89.65040005 -67 107 C-67.67289063 107.83660156 -68.34578125 108.67320312 -69.0390625 109.53515625 C-78.77807398 121.55840861 -88.99824926 133.13532909 -99.55566406 144.44238281 C-100.94219452 145.93766076 -102.31135441 147.44898928 -103.6796875 148.9609375 C-110.17004625 156.13185905 -116.92085736 163.02629301 -123.75 169.875 C-125.08115845 171.21304688 -125.08115845 171.21304688 -126.43920898 172.578125 C-130.87553739 177.00406971 -135.36899491 181.28666474 -140.12353516 185.36865234 C-143.27550068 188.1088857 -146.28157308 191.0025134 -149.3125 193.875 C-154.47179876 198.72648151 -159.71989869 203.36859124 -165.2578125 207.7890625 C-167.82565715 209.85943297 -170.33311763 211.98318226 -172.83398438 214.13305664 C-186.6258982 225.96653487 -186.6258982 225.96653487 -192 229 C-195.51081985 227.82972672 -196.04938227 226.92018154 -198.13671875 223.96484375 C-198.71357422 223.15595703 -199.29042969 222.34707031 -199.88476562 221.51367188 C-200.47966797 220.66353516 -201.07457031 219.81339844 -201.6875 218.9375 C-202.29400391 218.08349609 -202.90050781 217.22949219 -203.52539062 216.34960938 C-205.02374442 214.23775639 -206.51489073 212.1211778 -208 210 C-206.60378902 206.84928198 -204.96932757 204.72027614 -202.536726 202.29063034 C-201.45438362 201.20231482 -201.45438362 201.20231482 -200.35017574 200.09201312 C-199.55446607 199.30212914 -198.75875641 198.51224515 -197.93893433 197.69842529 C-197.09601369 196.85379581 -196.25309305 196.00916632 -195.38462937 195.138942 C-193.04401543 192.79560134 -190.69899231 190.45683663 -188.35201287 188.11988163 C-185.82216437 185.59866368 -183.29809172 183.0716751 -180.77331543 180.54537964 C-176.39820116 176.16921627 -172.01943762 171.79673197 -167.63817978 167.42671967 C-161.30361009 161.10839861 -154.97456507 154.78456731 -148.64685823 148.4593741 C-138.38062181 138.19751579 -128.10992628 127.94013248 -117.83642578 117.68554688 C-107.85621963 107.72369654 -97.87811456 97.75974944 -87.90283203 87.79296875 C-87.28803639 87.17869855 -86.67324075 86.56442836 -86.03981493 85.93154392 C-82.95560314 82.84994218 -79.87143266 79.76829912 -76.78728271 76.68663549 C-51.19792269 51.11801156 -25.6013254 25.55664296 0 0 Z " fill="#7AE1FD" transform="translate(442,157)"/>
<path d="M0 0 C3.50369882 1.5049979 5.77273177 3.54435206 8.5 6.1875 C29.16827644 25.25742973 54.8911256 42.41338792 81 53 C66.2299109 67.7700891 30.89606296 72.08683219 11 75 C10.28634277 75.11569336 9.57268555 75.23138672 8.83740234 75.35058594 C-24.39899642 80.70079677 -68.18029298 79.40349573 -99 65 C-99.33 64.34 -99.66 63.68 -100 63 C-99.30253662 62.64921387 -98.60507324 62.29842773 -97.88647461 61.93701172 C-68.78827383 47.23912318 -41.32491536 30.25046244 -15 11 C-14.32582031 10.50773926 -13.65164063 10.01547852 -12.95703125 9.50830078 C-8.63141572 6.34780437 -4.31315421 3.17747775 0 0 Z " fill="#7BE2FE" transform="translate(279,420)"/>
<path d="M0 0 C0.79888641 -0.0033284 1.59777283 -0.0066568 2.42086792 -0.01008606 C4.12057929 -0.015154 5.82030062 -0.01749443 7.52001953 -0.01733398 C10.05909995 -0.01948211 12.5977175 -0.03752986 15.13671875 -0.05664062 C30.11784809 -0.11050223 44.46357555 1.22556114 59.0546875 4.79296875 C60.02728516 5.02242187 60.99988281 5.251875 62.00195312 5.48828125 C64.33420532 6.03974975 66.66361915 6.60122258 68.9921875 7.16796875 C63.40276973 13.98102412 57.17353634 20.12763998 50.9440918 26.34545898 C49.72296317 27.56794431 48.50204701 28.7906419 47.28132629 30.01353455 C43.98239724 33.31700315 40.68033643 36.6173243 37.37754798 39.91693377 C33.91986081 43.37208279 30.4646213 46.82967813 27.00898743 50.28688049 C21.21311074 56.08457316 15.4151357 61.88016107 9.6159668 67.67456055 C2.90317026 74.38190015 -3.80599542 81.09285545 -10.51331645 87.8056702 C-16.27292718 93.56980999 -22.0344731 99.33201001 -27.79765958 105.09257466 C-31.23987123 108.53322437 -34.68139662 111.9745532 -38.12117958 115.41763115 C-41.34876491 118.64809271 -44.57876278 121.87612201 -47.81068611 125.10224342 C-48.99960031 126.28982934 -50.18765322 127.47827819 -51.37480545 128.66762543 C-52.98771853 130.28324697 -54.60364078 131.89579507 -56.22041321 133.5075531 C-57.57896911 134.86554347 -57.57896911 134.86554347 -58.96497059 136.25096798 C-61.0078125 138.16796875 -61.0078125 138.16796875 -62.0078125 138.16796875 C-62.38457669 130.74295746 -60.98249277 123.91385763 -59.4453125 116.66796875 C-59.17356201 115.38349854 -58.90181152 114.09902832 -58.62182617 112.77563477 C-50.47303508 74.90534385 -35.61198744 39.90580167 -15.0078125 7.16796875 C-14.6351123 6.55566406 -14.26241211 5.94335938 -13.87841797 5.3125 C-10.25851622 -0.4628809 -6.32940608 0.00923873 0 0 Z " fill="#B8EFFE" transform="translate(245.0078125,14.83203125)"/>
<path d="M0 0 C4.3862 3.25076525 6.50907466 7.55066149 8.203125 12.6328125 C9.23535992 21.85523926 6.69651922 29.29186443 1.515625 36.8828125 C-1.92026534 41.17767542 -6.04991905 43.93586939 -10.796875 46.6328125 C-12.405625 47.5609375 -12.405625 47.5609375 -14.046875 48.5078125 C-20.66247966 50.4924939 -27.64429785 50.66456502 -34.234375 48.5078125 C-39.49301952 44.66002383 -43.46820358 41.27616958 -44.796875 34.6328125 C-44.93341716 31.94098141 -44.88995364 29.33209318 -44.796875 26.6328125 C-45.84101563 26.56320313 -46.88515625 26.49359375 -47.9609375 26.421875 C-52.42642696 25.503312 -54.01121305 24.22682513 -57.171875 21.0078125 C-58.02523438 20.16992188 -58.87859375 19.33203125 -59.7578125 18.46875 C-62.19978904 15.07243781 -62.6903021 12.78915549 -62.796875 8.6328125 C-60.796875 5.6328125 -60.796875 5.6328125 -57.796875 3.6328125 C-54.546875 3.2578125 -54.546875 3.2578125 -50.796875 4.6328125 C-47.54024114 7.41159897 -44.64257977 10.43865409 -41.796875 13.6328125 C-39.69143321 11.54061248 -37.62065442 9.4414873 -35.609375 7.2578125 C-25.19530732 -2.461984 -13.23149846 -7.281485 0 0 Z " fill="#FD8E9E" transform="translate(340.796875,186.3671875)"/>
<path d="M0 0 C6.43041632 0.48258284 10.7062411 2.74276 15 7.5 C19.38104815 12.68653233 19.58357464 17.29386645 19.5390625 23.93359375 C18.61044836 31.93194003 14.37960947 39.43674471 8.125 44.5 C7.52816406 45.00015625 6.93132812 45.5003125 6.31640625 46.015625 C-0.4316191 51.43509175 -6.66606361 54.16604981 -15.421875 53.84375 C-22.12335227 52.90468949 -26.60804074 49.4654584 -30.6875 44.2109375 C-34.33877896 38.9502132 -34.60310301 33.75258456 -33.875 27.5 C-31.51263556 18.60086577 -26.44134135 10.44659095 -18.734375 5.24609375 C-16.44606729 4.32788624 -15.15130312 4.53508605 -12.75 5 C-11.47125 5.165 -10.1925 5.33 -8.875 5.5 C-3.72724023 0.48093422 -3.72724023 0.48093422 0 0 Z " fill="#FC8E9E" transform="translate(216.875,295.5)"/>
<path d="M0 0 C3.53542734 4.3506351 6.89545399 8.82238398 10.25 13.3125 C10.80429688 14.05306641 11.35859375 14.79363281 11.9296875 15.55664062 C13.28719172 17.37054713 14.64394177 19.18501238 16 21 C11.98160817 25.28681093 7.59296387 28.66120434 2.8125 32.0625 C2.01787354 32.63049316 1.22324707 33.19848633 0.40454102 33.78369141 C-19.86230605 48.19060667 -40.89618366 61.35051233 -62.875 73 C-63.84977295 73.52271484 -64.8245459 74.04542969 -65.82885742 74.58398438 C-66.72838135 75.05126953 -67.62790527 75.51855469 -68.5546875 76 C-69.34343262 76.4125 -70.13217773 76.825 -70.94482422 77.25 C-73 78 -73 78 -76 77 C-75.42158781 76.4229705 -75.42158781 76.4229705 -74.83149052 75.83428383 C-65.45661615 66.48147682 -56.08453008 57.12588378 -46.71545506 47.76726723 C-42.18459075 43.24162999 -37.65279742 38.71693115 -33.11889648 34.19433594 C-28.74659519 29.83286973 -24.37671414 25.46899231 -20.00852776 21.103405 C-18.33837478 19.43510514 -16.66733939 17.76768822 -14.99542427 16.10115433 C-12.66073093 13.7736796 -10.32914478 11.44313536 -7.99829102 9.11181641 C-7.3005809 8.41770157 -6.60287079 7.72358673 -5.88401794 7.00843811 C-5.25158173 6.37462723 -4.61914551 5.74081635 -3.96754456 5.08779907 C-3.41539056 4.53656687 -2.86323656 3.98533466 -2.29435062 3.41739845 C-0.89176181 2.01094002 -0.89176181 2.01094002 0 0 Z " fill="#2DCEF9" transform="translate(233,365)"/>
<path d="M0 0 C2.4375 1.375 2.4375 1.375 4 4 C5.43820402 12.12511135 3.06792261 19.59555666 -1.578125 26.265625 C-7.01136152 32.87361537 -13.76693714 37.34597433 -22.45703125 38.2578125 C-26.46003681 38.43363998 -29.13413664 38.51539486 -32.625 36.4375 C-34.54211763 33.03897329 -34.54861638 30.84031465 -34 27 C-32.5625 24.625 -32.5625 24.625 -30 23 C-27.75069781 22.6500137 -25.51996705 22.49239893 -23.25 22.328125 C-18.77974142 21.67621229 -15.98689368 19.19107858 -13.1875 15.8125 C-12.04338804 13.10276114 -11.78029315 11.32562655 -11.5625 8.4375 C-11.29013707 5.35414603 -11.07524459 4.11865493 -9.375 1.4375 C-6.02280766 -0.59145852 -3.84748569 -0.54964081 0 0 Z " fill="#010303" transform="translate(265,231)"/>
<path d="M0 0 C0.66 0 1.32 0 2 0 C2.5878125 1.2065625 2.5878125 1.2065625 3.1875 2.4375 C4.8525473 5.40122736 4.8525473 5.40122736 8.6875 5.8125 C10.3271875 5.9053125 10.3271875 5.9053125 12 6 C12.98809656 8.78911014 13.40519872 10.12981504 13 13 C10.61755669 16.551945 7.54548108 19.35839944 4.453125 22.29296875 C3.12991241 23.59564445 3.12991241 23.59564445 1.77996826 24.92463684 C-0.56592873 27.2278409 -2.92772093 29.51291491 -5.2989502 31.78997803 C-8.63191442 34.9999924 -11.93100768 38.24488352 -15.23712158 41.48249817 C-16.99811048 43.20296235 -18.76418845 44.91823623 -20.53582764 46.62773132 C-21.7415744 47.79463249 -21.7415744 47.79463249 -22.97167969 48.98510742 C-23.67862976 49.66570724 -24.38557983 50.34630707 -25.11395264 51.04753113 C-26.93287631 52.9305124 -28.48071891 54.87112325 -30 57 C-30.66 56.67 -31.32 56.34 -32 56 C-31.68885254 55.51869629 -31.37770508 55.03739258 -31.05712891 54.54150391 C-19.67354869 36.87502291 -9.70668424 18.62857273 0 0 Z " fill="#7ADEFA" transform="translate(483,179)"/>
<path d="M0 0 C0.66 0.33 1.32 0.66 2 1 C-2.76149427 6.27046727 -7.60127856 11.45930481 -12.50195312 16.60058594 C-14.15750525 18.35645495 -15.79463611 20.1298906 -17.41210938 21.92089844 C-30.50413119 36.38002327 -30.50413119 36.38002327 -36.34716797 37.41625977 C-42.15555724 37.17942119 -47.55622871 35.15184902 -51.9375 31.29394531 C-52.288125 30.86694336 -52.63875 30.43994141 -53 30 C-52.30253662 29.64921387 -51.60507324 29.29842773 -50.88647461 28.93701172 C-33.41145748 20.11014796 -16.31418462 10.87612308 0 0 Z " fill="#2DCAF5" transform="translate(232,453)"/>
<path d="M0 0 C4.34301734 1.11132885 5.99124031 2.61964538 9.0234375 5.87109375 C9.87679687 6.76699219 10.73015625 7.66289062 11.609375 8.5859375 C14.14105126 11.50076017 14.59250157 12.43017034 15.0234375 16.30859375 C14.6484375 19.93359375 14.6484375 19.93359375 12.4609375 22.37109375 C9.28873401 24.13342902 8.19786828 24.51580254 4.6484375 23.93359375 C2.32613501 22.13881936 0.42330309 20.45303276 -1.6015625 18.37109375 C-2.14296875 17.85740234 -2.684375 17.34371094 -3.2421875 16.81445312 C-6.92248545 13.11115331 -8.32579297 10.35163814 -8.3515625 4.93359375 C-5.82235052 1.13977578 -4.62943755 -0.09172545 0 0 Z " fill="#030506" transform="translate(198.3515625,278.06640625)"/>
<path d="M0 0 C2.47810203 1.59261056 4.45111112 3.520047 6.5 5.625 C7.04914063 6.13417969 7.59828125 6.64335937 8.1640625 7.16796875 C9.71875 8.7265625 9.71875 8.7265625 12 12 C11.91953707 15.53671131 11.65184333 17.87738094 9.875 20.9375 C6.64048218 22.77039343 4.66028566 22.60004683 1 22 C-2.02675011 20.00131112 -4.48163691 17.59722623 -7 15 C-7.54527344 14.48695313 -8.09054687 13.97390625 -8.65234375 13.4453125 C-11.36959535 10.66031779 -11.99594807 9.23906406 -12.0625 5.3125 C-11 2 -11 2 -9.375 0 C-5.85670936 -1.48138553 -3.69004761 -0.89757915 0 0 Z " fill="#030506" transform="translate(290,191)"/>
<path d="M0 0 C0.66 0.33 1.32 0.66 2 1 C-11.2 14.2 -24.4 27.4 -38 41 C-38.66 40.67 -39.32 40.34 -40 40 C-26.66666667 26.66666667 -13.33333333 13.33333333 0 0 Z " fill="#6FDEFC" transform="translate(238,449)"/>
</svg>
